#!OML:ASF F:\VICON\USERDATA\INSTALL\rory3\rory3.ASF
:FULLY-SPECIFIED
:DEGREES
2641
root 3.09169 17.9115 0.956103 -360.384 -70.3229 371.204
lowerback 10.2766 -0.986489 0.32877
upperback 2.71551 -1.24882 3.58199
thorax -2.85833 -0.664612 3.69981
lowerneck -23.8283 1.67318 -8.55034
upperneck 15.4648 3.89659 6.00671
head 8.40411 1.99067 3.97314
rclavicle 3.49861e-014 2.06736e-014
rhumerus -26.1128 -1.81297 -80.162
rradius 37.8152
rwrist 16.7202
rhand -21.4761 5.60958
rfingers 7.12502
rthumb 4.91464 -24.3134
lclavicle 3.49861e-014 2.06736e-014
lhumerus -25.9312 -8.59119 96.1055
lradius 38.7522
lwrist -3.75225
lhand -12.9336 28.4853
lfingers 7.12502
lthumb 13.1572 58.0502
rfemur -24.2844 0.431221 17.7906
rtibia 33.4155
rfoot -15.9251 1.49092
rtoes 9.22857
lfemur -25.3477 3.26392 -20.0154
ltibia 35.1042
lfoot -14.2546 5.62862
ltoes -10.0707
2642
root 3.0369 17.9253 0.943339 -360.325 -70.4955 371.126
lowerback 10.3262 -0.911754 0.340447
upperback 2.85509 -1.15617 3.5758
thorax -2.74651 -0.622439 3.67397
lowerneck -23.9215 1.6648 -8.6788
upperneck 15.3378 3.96778 5.86368
head 8.3716 2.00385 3.95146
rclavicle 3.49861e-014 -1.59028e-015
rhumerus -26.5572 -1.29298 -81.3132
rradius 36.6875
rwrist 17.7504
rhand -21.0712 5.45014
rfingers 7.12502
rthumb 5.3056 -24.4634
lclavicle 3.49861e-014 -1.59028e-015
lhumerus -26.1851 -9.48841 97.0539
lradius 38.0384
lwrist -4.48559
lhand -11.356 28.2486
lfingers 7.12502
lthumb 14.6776 57.7091
rfemur -23.9091 0.711361 17.919
rtibia 33.0676
rfoot -16.0073 1.46006
rtoes 9.60036
lfemur -25.7251 3.2533 -20.04
ltibia 34.9871
lfoot -13.9889 5.86621
ltoes -10.527
2643
root 2.97914 17.9359 0.932476 -360.382 -70.5668 371.174
lowerback 10.3319 -0.887198 0.281095
upperback 2.97958 -1.13707 3.56834
thorax -2.62029 -0.616277 3.69529
lowerneck -23.9078 1.67832 -8.80825
upperneck 15.1138 4.06282 5.70584
head 8.28673 2.02841 3.92199
rclavicle 5.76476e-014 2.06736e-014
rhumerus -27.0022 -0.326052 -82.5109
rradius 35.5643
rwrist 18.7473
rhand -20.4723 5.51977
rfingers 7.12502
rthumb 5.88386 -24.3785
lclavicle 5.76476e-014 2.06736e-014
lhumerus -26.4616 -10.3184 97.9268
lradius 37.3627
lwrist -5.36359
lhand -9.09048 27.3038
lfingers 7.12502
lthumb 16.8593 56.5919
rfemur -23.5656 0.589922 18.044
rtibia 32.7736
rfoot -15.9877 1.6254
rtoes 9.98269
lfemur -26.0788 3.09397 -20.0986
ltibia 34.8227
lfoot -13.71 6.15474
ltoes -10.6192
2644
root 2.92589 17.9418 0.925225 -360.2 -70.6879 371.087
lowerback 10.2635 -0.821141 0.146913
upperback 3.07126 -1.06841 3.66618
thorax -2.48708 -0.585785 3.86227
lowerneck -23.8526 1.69804 -8.87631
upperneck 14.8422 4.16718 5.41774
head 8.18301 2.04766 3.83664
rclavicle -1.66979e-014 -2.70347e-014
rhumerus -27.3376 0.390859 -83.5574
rradius 34.3957
rwrist 20.2338
rhand -19.3163 5.93378
rfingers 7.12502
rthumb 6.9998 -23.9305
lclavicle -1.66979e-014 -2.70347e-014
lhumerus -26.7171 -11.0359 98.9379
lradius 36.7582
lwrist -6.36828
lhand -8.08031 27.0866
lfingers 7.12502
lthumb 17.8316 56.2891
rfemur -23.4042 0.383726 18.1829
rtibia 32.5417
rfoot -15.9193 2.04239
rtoes 10.9759
lfemur -26.561 3.07962 -20.1581
ltibia 34.6407
lfoot -13.4289 6.36332
ltoes -10.725
2645
root 2.87622 17.9435 0.916743 -359.547 -70.76 370.601
lowerback 10.1262 -0.760113 0.0434625
upperback 3.15427 -1.00299 3.86737
thorax -2.32367 -0.558434 4.11959
lowerneck -24.025 1.68709 -8.95375
upperneck 14.8084 4.26011 5.08987
head 8.20009 2.05164 3.75103
rclavicle -4.77083e-014 3.65764e-014
rhumerus -27.5799 1.07819 -84.5029
rradius 33.2692
rwrist 21.7859
rhand -17.5631 6.64469
rfingers 7.12502
rthumb 8.69192 -23.1564
lclavicle -4.77083e-014 3.65764e-014
lhumerus -26.9738 -11.8951 99.9912
lradius 36.3785
lwrist -7.20468
lhand -8.5819 28.0129
lfingers 7.12502
lthumb 17.3489 57.2587
rfemur -23.3622 0.39269 18.4138
rtibia 32.3548
rfoot -15.9786 2.32788
rtoes 12.2849
lfemur -27.201 3.14374 -20.123
ltibia 34.4546
lfoot -13.0564 6.50552
ltoes -12.5868
2646
root 2.82756 17.9449 0.906492 -359.095 -70.7741 370.286
lowerback 10.0581 -0.702433 -0.00819971
upperback 3.20213 -0.934737 3.95651
thorax -2.23877 -0.527232 4.23218
lowerneck -24.145 1.68924 -8.91187
upperneck 14.8426 4.31617 4.81151
head 8.23589 2.04842 3.65969
rclavicle -5.64548e-014 3.65764e-014
rhumerus -27.9951 2.16813 -85.6302
rradius 32.3892
rwrist 22.6877
rhand -16.1048 6.8172
rfingers 7.12502
rthumb 10.099 -22.9205
lclavicle -5.64548e-014 3.65764e-014
lhumerus -27.3517 -13.0167 100.919
lradius 36.0844
lwrist -8.05912
lhand -9.42193 29.2132
lfingers 7.12502
lthumb 16.5403 58.5283
rfemur -23.2776 0.416934 18.5892
rtibia 32.191
rfoot -16.0533 2.48356
rtoes 13.0536
lfemur -27.8288 3.1238 -20.1238
ltibia 34.2662
lfoot -12.7706 6.58672
ltoes -14.6842
